#!OML:ASF H:\charlestonDancing\Project 1\Capture day 1\Session 1\femaleDancer.ASF
:FULLY-SPECIFIED
:DEGREES
111
root 6.13004 17.5853 -0.17762 -56.8169 -101.908 53.7571
lowerback 9.23275 1.78387 13.0654
upperback 1.37993 3.60084 0.89534
thorax -2.97325 1.62144 -6.78366
lowerneck 1.83941 -0.234968 3.36903
upperneck -2.54578 -0.344525 -4.28273
head -1.12421 -0.14957 -1.91636
rclavicle -1.59773e-014 -3.10104e-014
rhumerus -2.03264 24.7011 -85.4105
rradius 41.8607
rwrist 14.9927
rhand -16.231 -38.3993
rfingers 7.12502
rthumb 9.97735 -68.1429
lclavicle -1.59773e-014 -3.10104e-014
lhumerus -102.468 35.6197 -27.642
lradius 11.1525
lwrist -86.7651
lhand -25.2064 24.1333
lfingers 7.12502
lthumb 1.31218 54.109
rfemur 16.4165 -3.93677 31.104
rtibia 5.25054
rfoot -15.7934 2.98535
rtoes -16.7632
lfemur -32.0469 0.688657 -10.2424
ltibia 29.0645
lfoot -9.67699 -5.38359
ltoes -18.2971
112
root 5.7586 17.5616 -0.176107 -54.2244 -102.66 51.3036
lowerback 9.05062 2.09139 13.2504
upperback 1.54119 3.97827 0.931952
thorax -2.60798 1.83631 -6.86202
lowerneck 1.64641 -0.161695 3.34577
upperneck -2.7304 -0.263819 -4.42565
head -1.1466 -0.109622 -1.96048
rclavicle -5.3001e-014 -1.23246e-014
rhumerus -0.397214 25.8755 -84.3983
rradius 43.6761
rwrist 14.2105
rhand -16.8767 -37.7808
rfingers 7.12502
rthumb 9.35432 -67.5533
lclavicle -5.3001e-014 -1.23246e-014
lhumerus -101.28 34.3049 -26.3355
lradius 11.1726
lwrist -84.787
lhand -24.8658 24.5017
lfingers 7.12502
lthumb 1.64118 54.4751
rfemur 20.2071 -2.23511 31.6425
rtibia 1.59028e-014
rfoot -13.3887 2.54194
rtoes -18.2503
lfemur -32.5203 0.908248 -9.52219
ltibia 27.1675
lfoot -10.1213 -4.50763
ltoes -18.6745
113
root 5.38155 17.5109 -0.166671 -53.2702 -103.249 50.5467
lowerback 8.70988 2.26268 13.4352
upperback 1.7306 4.1465 1.04965
thorax -2.17343 1.9533 -6.82222
lowerneck 1.50717 -0.121121 3.29192
upperneck -3.02082 -0.231864 -4.60094
head -1.21399 -0.0926491 -2.0101
rclavicle 4.61677e-014 4.37326e-015
rhumerus 1.21941 26.725 -83.3997
rradius 45.132
rwrist 13.8232
rhand -17.3849 -37.1737
rfingers 7.12502
rthumb 8.86393 -66.9675
lclavicle 4.61677e-014 4.37326e-015
lhumerus -99.3806 33.2633 -23.0402
lradius 11.1514
lwrist -81.3915
lhand -24.5271 24.4529
lfingers 7.12502
lthumb 1.96826 54.4235
rfemur 21.365 -0.869518 32.1461
rtibia -4.45278e-014
rfoot -13.4134 1.65331
rtoes -20.7502
lfemur -33.0852 1.60028 -9.20916
ltibia 26.7773
lfoot -10.8865 -4.28505
ltoes -20.9143
114
root 4.99277 17.4355 -0.152613 -53.0391 -103.64 50.2767
lowerback 8.75217 2.3241 13.538
upperback 1.80356 4.23393 1.11058
thorax -2.09667 2.00239 -6.81981
lowerneck 1.71764 -0.126323 3.27484
upperneck -3.37449 -0.248119 -4.64003
head -1.3643 -0.0968973 -2.02357
rclavicle -9.83984e-015 2.8625e-014
rhumerus 2.1525 27.0299 -82.934
rradius 46.3965
rwrist 13.8406
rhand -17.6702 -37.0554
rfingers 7.12502
rthumb 8.58859 -66.8607
lclavicle -9.83984e-015 2.8625e-014
lhumerus -96.8161 32.2019 -18.2909
lradius 11.142
lwrist -76.5995
lhand -23.8466 24.7032
lfingers 7.12502
lthumb 2.62548 54.6668
rfemur 22.8253 0.260922 32.5124
rtibia 6.99722e-014
rfoot -13.3906 0.945615
rtoes -23.0691
lfemur -33.1948 1.65279 -8.91933
ltibia 27.634
lfoot -11.4553 -4.08092
ltoes -19.9725
115
root 4.59264 17.355 -0.142678 -52.9476 -103.81 49.9097
lowerback 9.13225 2.30428 13.3755
upperback 1.79368 4.2535 1.06348
thorax -2.32396 1.997 -6.807
lowerneck 1.98514 -0.115274 3.39285
upperneck -3.58377 -0.223015 -4.50573
head -1.47695 -0.083888 -2.00462
rclavicle 3.19049e-014 3.57812e-014
rhumerus 2.23579 26.9785 -83.1024
rradius 47.7065
rwrist 14.0129
rhand -17.7885 -37.5231
rfingers 7.12502
rthumb 8.47441 -67.3331
lclavicle 3.19049e-014 3.57812e-014
lhumerus -93.7094 30.979 -12.196
lradius 11.2442
lwrist -70.355
lhand -22.8879 24.9127
lfingers 7.12502
lthumb 3.55135 54.8628
rfemur 24.5846 1.231 32.6966
rtibia -2.8625e-014
rfoot -13.3393 0.334441
rtoes -24.8065
lfemur -32.7668 1.3148 -8.79201
ltibia 29.1236
lfoot -11.5793 -3.10396
ltoes -18.3743
116
root 4.1784 17.2475 -0.133662 -53.2152 -103.533 49.8293
lowerback 9.40196 2.20194 12.8687
upperback 1.83544 4.10771 0.894711
thorax -2.48576 1.92145 -6.71114
lowerneck 1.96081 -0.141456 3.69206
upperneck -3.52111 -0.237534 -4.32919
head -1.45384 -0.0975631 -1.99974
rclavicle 6.85807e-015 -3.57812e-015
rhumerus 1.92857 26.9213 -83.4699
rradius 48.9343
rwrist 13.9211
rhand -17.9552 -38.063
rfingers 7.12502
rthumb 8.31359 -67.8794
lclavicle 6.85807e-015 -3.57812e-015
lhumerus -91.7136 29.7937 -7.87585
lradius 11.3362
lwrist -65.672
lhand -22.1393 24.1832
lfingers 7.12502
lthumb 4.27425 54.1201
rfemur 26.5088 1.8732 32.5675
rtibia 4.13472e-014
rfoot -13.1442 -0.146722
rtoes -26.586
lfemur -32.1368 1.3666 -9.44265
ltibia 31.2136
lfoot -11.0337 -2.17619
ltoes -21.2935
117
root 3.74556 17.1705 -0.123888 -52.8448 -102.801 49.1995
lowerback 9.40799 2.12991 11.9262
upperback 1.8292 3.92504 0.577483
thorax -2.57837 1.83748 -6.51126
lowerneck 1.5336 -0.073965 4.1642
upperneck -3.1351 -0.129275 -4.19601
head -1.25273 -0.0549015 -2.03743
rclavicle -2.93207e-014 -4.49253e-014
rhumerus 1.16017 26.6601 -84.0449
rradius 49.9449
rwrist 13.8692
rhand -18.281 -38.3035
rfingers 7.12502
rthumb 7.99912 -68.1321
lclavicle -2.93207e-014 -4.49253e-014
lhumerus -91.5378 28.8768 -7.27612
lradius 11.2427
lwrist -64.6054
lhand -21.8088 22.6565
lfingers 7.12502
lthumb 4.59342 52.5867
rfemur 28.3584 2.37919 31.9799
rtibia -1.59028e-014
rfoot -12.5406 -0.428549
rtoes -29.0838
lfemur -31.4199 1.49169 -10.7547
ltibia 33.2585
lfoot -10.4557 -0.574498
ltoes -29.2005
118
root 3.29855 17.1533 -0.113193 -52.1921 -102.079 48.6122
lowerback 9.07206 2.10536 10.991
upperback 1.65513 3.77747 0.220572
thorax -2.64525 1.76863 -6.34283
lowerneck 0.751056 0.02971 5.04316
upperneck -2.28034 0.0140643 -4.42699
head -0.844143 0.00543581 -2.26534
rclavicle 2.78299e-015 3.18055e-014
rhumerus -0.526208 26.0727 -85.0437
rradius 51.3098
rwrist 13.9986
rhand -18.5247 -38.5643
rfingers 7.12502
rthumb 7.76392 -68.4017
lclavicle 2.78299e-015 3.18055e-014
lhumerus -92.2666 28.2228 -8.68076
lradius 11.0376
lwrist -65.5124
lhand -21.5514 21.2643
lfingers 7.12502
lthumb 4.84196 51.189
rfemur 29.7966 2.93022 31.4325
rtibia -1.59028e-014
rfoot -11.2037 -0.53905
rtoes -32.0303
lfemur -31.417 2.37394 -12.4465
ltibia 35.3488
lfoot -8.28834 1.43639
ltoes -38.9442
119
root 2.84031 17.1881 -0.101943 -51.4855 -101.402 48.182
lowerback 8.66334 2.10542 10.2175
upperback 1.29495 3.68469 -0.259887
thorax -2.83541 1.71419 -6.40089
lowerneck 0.785492 -0.0878969 5.29594
upperneck -1.8804 -0.110536 -3.68979
head -0.728124 -0.0616218 -2.06518
rclavicle 2.93207e-015 4.77083e-015
rhumerus -3.11416 25.0333 -86.6532
rradius 52.7662
rwrist 14.1393
rhand -18.8632 -38.8339
rfingers 7.12502
rthumb 7.43715 -68.6832
lclavicle 2.93207e-015 4.77083e-015
lhumerus -93.5146 27.8137 -11.8477
lradius 10.748
lwrist -68.0408
lhand -21.1357 20.2833
lfingers 7.12502
lthumb 5.24331 50.1985
rfemur 30.9305 3.49636 30.9725
rtibia -1.27222e-014
rfoot -8.95626 -0.423353
rtoes -34.7209
lfemur -31.9165 1.60732 -13.0954
ltibia 37.186
lfoot -6.76419 1.95463
ltoes -23.6603
120
root 2.3809 17.1893 -0.0902288 -49.7775 -100.531 46.6907
lowerback 8.42992 2.15804 9.3039
upperback 0.857608 3.66527 -0.919643
thorax -3.18528 1.6871 -6.58802
lowerneck 0.74796 -0.251777 5.42663
upperneck -1.2534 -0.30413 -2.61865
head -0.52977 -0.161649 -1.73506
rclavicle 6.70898e-015 5.56597e-015
rhumerus -5.85366 23.8192 -88.4853
rradius 53.4109
rwrist 13.991
rhand -19.3622 -39.1741
rfingers 7.12502
rthumb 6.95553 -69.0398
lclavicle 6.70898e-015 5.56597e-015
lhumerus -95.0431 27.682 -16.3084
lradius 10.4406
lwrist -72.0891
lhand -20.3681 19.8664
lfingers 7.12502
lthumb 5.98443 49.7619
rfemur 27.3271 4.05819 30.1724
rtibia 9.63138
rfoot -10.3538 -1.15887
rtoes -37.1699
lfemur -31.9488 0.952662 -14.1683
ltibia 39.078
lfoot -5.02524 2.60633
ltoes -12.3746
121
root 1.93062 17.192 -0.0768999 -46.8327 -99.4686 43.8363
lowerback 8.2286 2.2352 8.04734
upperback 0.550225 3.63297 -1.55221
thorax -3.43841 1.6673 -6.54587
lowerneck 0.53964 -0.355673 5.40378
upperneck -0.558503 -0.44629 -1.58687
head -0.279477 -0.231473 -1.39639
rclavicle -4.25896e-014 1.27222e-014
rhumerus -9.09556 22.2836 -90.2062
rradius 54.1725
rwrist 14.0522
rhand -19.5837 -39.047
rfingers 7.12502
rthumb 6.74168 -68.9197
lclavicle -4.25896e-014 1.27222e-014
lhumerus -97.4551 27.9713 -22.1353
lradius 10.1987
lwrist -77.9299
lhand -19.3891 19.6621
lfingers 7.12502
lthumb 6.92957 49.5287
rfemur 24.6675 4.55333 29.231
rtibia 17.3691
rfoot -9.35781 -1.15901
rtoes -39.155
lfemur -31.2162 0.438554 -15.7869
ltibia 40.5686
lfoot -5.64406 2.22903
ltoes -15.1515
122
root 1.50805 17.1674 -0.0588898 -43.2987 -98.432 40.3584
lowerback 8.11119 2.28812 6.72408
upperback 0.33137 3.56191 -2.05187
thorax -3.66178 1.63436 -6.32013
lowerneck 0.347566 -0.402943 5.42092
upperneck -0.00585271 -0.525515 -0.890983
head -0.0767562 -0.266609 -1.1775
rclavicle -2.38542e-015 -1.27222e-014
rhumerus -12.175 21.1104 -91.5718
rradius 54.2768
rwrist 13.8319
rhand -20.0149 -38.2272
rfingers 7.12502
rthumb 6.32544 -68.1128
lclavicle -2.38542e-015 -1.27222e-014
lhumerus -101.104 28.3819 -29.4399
lradius 10.0745
lwrist -85.5137
lhand -18.5398 19.2807
lfingers 7.12502
lthumb 7.74933 49.1187
rfemur 21.9533 5.04938 28.2952
rtibia 24.8656
rfoot -6.90488 -0.866039
rtoes -39.682
lfemur -30.5049 -0.48577 -17.2952
ltibia 41.8688
lfoot -6.84524 2.12942
ltoes -15.1401
123
root 1.09359 17.2133 -0.0331147 -39.7896 -97.5891 36.877
lowerback 8.11885 2.23899 5.59859
upperback 0.187949 3.37951 -2.38389
thorax -3.88842 1.54696 -6.02126
lowerneck 0.31415 -0.616408 4.86506
upperneck 0.552653 -0.826993 0.0239526
head 0.0970161 -0.410691 -0.794567
rclavicle -5.72003e-014 2.54444e-014
rhumerus -15.0855 20.4492 -92.7659
rradius 53.6788
rwrist 13.4003
rhand -20.5787 -37.8095
rfingers 7.12502
rthumb 5.78115 -67.7106
lclavicle -5.72003e-014 2.54444e-014
lhumerus -104.426 28.9584 -34.6557
lradius 10.0103
lwrist -91.2558
lhand -17.8762 19.2877
lfingers 7.12502
lthumb 8.38981 49.1011
rfemur 18.6542 5.06454 27.2137
rtibia 31.999
rfoot -1.17988 0.384841
rtoes -38.2256
lfemur -29.3816 -1.25126 -18.6105
ltibia 42.6092
lfoot -8.18754 1.8813
ltoes -14.8545
124
root 0.691901 17.2624 -0.000892151 -35.654 -96.8073 32.7367
lowerback 8.12878 2.099 4.53091
upperback 0.154089 3.07882 -2.62096
thorax -4.01421 1.4081 -5.63701
lowerneck -0.0981728 -0.579835 4.21594
upperneck 1.2862 -0.8244 0.846503
head 0.393397 -0.397354 -0.435218
rclavicle -1.01132e-014 -5.56597e-015
rhumerus -17.7836 20.2653 -93.7812
rradius 52.5475
rwrist 12.7089
rhand -20.7379 -38.2057
rfingers 7.12502
rthumb 5.62741 -68.111
lclavicle -1.01132e-014 -5.56597e-015
lhumerus -100.04 32.5911 -23.9265
lradius 9.73369
lwrist -82.9876
lhand -16.8467 21.0771
lfingers 7.12502
lthumb 9.38325 50.8482
rfemur 15.2664 4.83252 25.97
rtibia 38.7298
rfoot 6.62525 1.282
rtoes -31.5876
lfemur -28.0046 -1.65491 -19.9766
ltibia 42.8184
lfoot -9.34749 1.56218
ltoes -16.1428
